<svg id="_0deg" data-name="0deg" xmlns="http://www.w3.org/2000/svg" viewBox="0 0 191.75 198.95"><defs><style>.cls-1,.cls-2{fill:#fff;stroke-miterlimit:10;}.cls-1{stroke:#000;stroke-width:6px;}.cls-2{stroke:#2ba24b;stroke-width:9px;}</style></defs><rect class="cls-1" x="21.78" y="47.77" width="148.19" height="148.19"/><rect class="cls-1" x="8.81" y="181.66" width="174.14" height="14.29" rx="7.15"/><path d="M132.17,91.25H59.58a13.33,13.33,0,0,0-13.31,13.32v29.05a13.32,13.32,0,0,0,13.31,13.31h72.59a13.32,13.32,0,0,0,13.31-13.31V104.57A13.33,13.33,0,0,0,132.17,91.25Zm7.31,13.32v11.52H98.87V97.25h33.3A7.32,7.32,0,0,1,139.48,104.57Zm-79.9-7.32H92.87v18.84H52.27V104.57A7.32,7.32,0,0,1,59.58,97.25Zm-7.31,36.37V122.09h40.6v18.84H59.58A7.32,7.32,0,0,1,52.27,133.62Zm79.9,7.31H98.87V122.09h40.61v11.53A7.32,7.32,0,0,1,132.17,140.93Z"/><path class="cls-1" d="M155,40.05V5.8a2.8,2.8,0,0,0-2.8-2.8H138.8A2.8,2.8,0,0,0,136,5.8V40.05Z"/><rect class="cls-2" x="4.5" y="40.62" width="182.75" height="14.29" rx="7.15"/></svg>