<svg xmlns="http://www.w3.org/2000/svg" viewBox="0 0 191.06 197.76"><defs><style>.cls-1,.cls-2{fill:#fff;stroke-miterlimit:10;}.cls-1{stroke:#000;stroke-width:6px;}.cls-2{stroke:#2ba24b;stroke-width:9px;}</style></defs><g id="_35deg" data-name="35deg"><polygon class="cls-1" points="169.99 193.35 21.8 193.35 21.8 45.16 95.9 18.46 169.99 45.16 169.99 193.35"/><rect class="cls-1" x="8.46" y="180.47" width="174.14" height="14.29" rx="7.15"/><path d="M131.82,91.42H59.24a13.33,13.33,0,0,0-13.32,13.31v29.05a13.33,13.33,0,0,0,13.32,13.31h72.58a13.32,13.32,0,0,0,13.31-13.31v-29A13.32,13.32,0,0,0,131.82,91.42Zm7.31,13.31v11.53H98.53V97.42h33.29A7.32,7.32,0,0,1,139.13,104.73ZM59.24,97.42H92.53v18.84H51.92V104.73A7.32,7.32,0,0,1,59.24,97.42Zm-7.32,36.36V122.26H92.53v18.83H59.24A7.32,7.32,0,0,1,51.92,133.78Zm79.9,7.31H98.53V122.26h40.6v11.52A7.32,7.32,0,0,1,131.82,141.09Z"/><path class="cls-1" d="M150,36.18V5.51A2.66,2.66,0,0,0,147.19,3H133.84A2.66,2.66,0,0,0,131,5.51V36.18Z"/><path class="cls-2" d="M5.64,62.3h0a6.64,6.64,0,0,1,2.67-9.68l83.14-45a8.73,8.73,0,0,1,8.16,0l83.14,45a6.64,6.64,0,0,1,2.67,9.68h0a8.42,8.42,0,0,1-10.83,2.39l-75-40.54a8.67,8.67,0,0,0-8.16,0l-75,40.54A8.42,8.42,0,0,1,5.64,62.3Z"/></g></svg>