<svg xmlns="http://www.w3.org/2000/svg" viewBox="0 0 193.33 199.5"><defs><style>.cls-1,.cls-2{fill:#fff;stroke-miterlimit:10;}.cls-1{stroke:#000;stroke-width:6px;}.cls-2{stroke:#2ba24b;stroke-width:9px;}</style></defs><g id="_20deg" data-name="20deg"><polygon class="cls-1" points="170.76 196.5 22.57 196.5 22.57 30.95 170.76 54.13 170.76 196.5"/><rect class="cls-1" x="9.6" y="182.21" width="174.14" height="14.29" rx="7.15"/><path d="M133,91.25H60.37a13.33,13.33,0,0,0-13.31,13.32v29.05a13.32,13.32,0,0,0,13.31,13.31H133a13.32,13.32,0,0,0,13.31-13.31V104.57A13.33,13.33,0,0,0,133,91.25Zm7.31,13.32v11.52H99.67V97.25H133A7.32,7.32,0,0,1,140.27,104.57Zm-79.9-7.32h33.3v18.84H53.06V104.57A7.32,7.32,0,0,1,60.37,97.25Zm-7.31,36.37V122.09H93.67v18.84H60.37A7.32,7.32,0,0,1,53.06,133.62Zm79.9,7.31H99.67V122.09h40.6v11.53A7.32,7.32,0,0,1,133,140.93Z"/><path class="cls-1" d="M155.75,40.05V5.8A2.8,2.8,0,0,0,153,3H139.6a2.8,2.8,0,0,0-2.8,2.8V40.05Z"/><rect class="cls-2" x="3.84" y="29.03" width="185.64" height="14.29" rx="7.15" transform="translate(5.21 -11.67) rotate(7.1)"/></g></svg>