<svg xmlns="http://www.w3.org/2000/svg" viewBox="0 0 193.75 206.08"><defs><style>.cls-1,.cls-2{fill:#fff;}.cls-1{stroke:#000;stroke-miterlimit:10;stroke-width:6px;}.cls-3{fill:#2ba24b;}</style></defs><g id="_45deg" data-name="45deg"><polygon class="cls-1" points="170.97 203.08 22.78 203.08 22.78 80.63 96.88 17.22 170.97 80.63 170.97 203.08"/><rect class="cls-1" x="9.81" y="188.74" width="174.14" height="14.29" rx="7.15"/><path d="M134.67,99.69H62.08A13.32,13.32,0,0,0,48.77,113v29.05a13.32,13.32,0,0,0,13.31,13.31h72.59A13.32,13.32,0,0,0,148,142.05V113A13.32,13.32,0,0,0,134.67,99.69ZM142,113v11.53h-40.6V105.69h33.29A7.32,7.32,0,0,1,142,113Zm-79.9-7.31h33.3v18.84H54.77V113A7.32,7.32,0,0,1,62.08,105.69Zm-7.31,36.36V130.53H95.38v18.83H62.08A7.32,7.32,0,0,1,54.77,142.05Zm79.9,7.31H101.38V130.53H142v11.52A7.32,7.32,0,0,1,134.67,149.36Z"/><path class="cls-1" d="M151,57.4V12.53c0-2-1.15-3.67-2.56-3.67H136.18c-1.41,0-2.56,1.65-2.56,3.67V57.4Z"/><path class="cls-2" d="M182.75,104.77a7,7,0,0,1-4.95-2L96,20.9l-80,80A7,7,0,1,1,6.05,91l85-85a7,7,0,0,1,9.9,0L187.7,92.82a7,7,0,0,1-4.95,12Z"/><path class="cls-3" d="M96,8a3,3,0,0,1,2.12.88l86.77,86.77a3,3,0,0,1,0,4.24,3,3,0,0,1-4.25,0L98.11,17.36a3,3,0,0,0-4.24,0L13.12,98.11a3,3,0,0,1-4.24,0,3,3,0,0,1,0-4.24l85-85A3,3,0,0,1,96,8m0-8a10.92,10.92,0,0,0-7.78,3.22l-85,85a11,11,0,0,0,15.56,15.56L96,26.56l79,79A11,11,0,0,0,190.53,90L103.77,3.22A10.92,10.92,0,0,0,96,0Z"/></g></svg>