<svg xmlns="http://www.w3.org/2000/svg" viewBox="0 0 192.51 208.27"><defs><style>.cls-1,.cls-2{fill:#fff;}.cls-1{stroke:#000;stroke-miterlimit:10;stroke-width:6px;}.cls-3{fill:#2ba24b;}</style></defs><g id="_55deg" data-name="55deg"><polygon class="cls-1" points="168.85 190.19 20.67 190.19 20.67 108.6 97.76 8 168.85 108.6 168.85 190.19"/><rect class="cls-1" x="9.19" y="190.98" width="174.14" height="14.29" rx="7.15"/><path d="M134.05,101.93H61.47a13.32,13.32,0,0,0-13.31,13.31V144.3a13.32,13.32,0,0,0,13.31,13.31h72.58a13.32,13.32,0,0,0,13.31-13.31V115.24A13.32,13.32,0,0,0,134.05,101.93Zm7.31,13.31v11.53h-40.6V107.93h33.29A7.32,7.32,0,0,1,141.36,115.24Zm-79.89-7.31H94.76v18.84H54.16V115.24A7.31,7.31,0,0,1,61.47,107.93ZM54.16,144.3V132.77h40.6v18.84H61.47A7.31,7.31,0,0,1,54.16,144.3Zm79.89,7.31H100.76V132.77h40.6V144.3A7.32,7.32,0,0,1,134.05,151.61Z"/><path class="cls-1" d="M148.85,68V23.17c0-2-1.14-3.67-2.56-3.67H134.07c-1.42,0-2.57,1.64-2.57,3.67V68Z"/><path class="cls-2" d="M181.52,132.07a7,7,0,0,1-5.64-2.86L97.56,22.6l-81,104a7,7,0,0,1-11-8.6L92.2,6.7A7,7,0,0,1,97.72,4a7,7,0,0,1,5.65,2.86l83.79,114.06a7,7,0,0,1-1.5,9.79A6.94,6.94,0,0,1,181.52,132.07Z"/><path class="cls-3" d="M97.72,8a3,3,0,0,1,2.42,1.22l83.8,114.07a3,3,0,0,1-.65,4.2h0a3,3,0,0,1-4.19-.64L100,19.17a3,3,0,0,0-4.78-.07l-81.85,105a3,3,0,1,1-4.73-3.68L95.36,9.16A3,3,0,0,1,97.72,8m0-8h0a10.91,10.91,0,0,0-8.67,4.24L2.33,115.52A11,11,0,0,0,4.24,131,11,11,0,0,0,19.68,129L97.47,29.23l75.18,102.35a11.05,11.05,0,0,0,8.87,4.49,10.9,10.9,0,0,0,6.4-2.06h0l.08-.07a11,11,0,0,0,2.35-15.37L106.59,4.49A11,11,0,0,0,97.72,0Z"/></g></svg>